<svg height="512pt" viewBox="0 0 512.001 512" width="512pt" xmlns="http://www.w3.org/2000/svg"><path d="m456.832031 0h-401.667969c-30.417968 0-55.164062 24.75-55.164062 55.167969v401.664062c0 30.421875 24.746094 55.167969 55.164062 55.167969h401.667969c30.421875 0 55.167969-24.746094 55.167969-55.167969v-401.664062c0-30.417969-24.746094-55.167969-55.167969-55.167969zm-401.667969 30h401.667969c13.878907 0 25.167969 11.289062 25.167969 25.167969v73.367187h-452v-73.367187c0-13.878907 11.289062-25.167969 25.164062-25.167969zm401.667969 452h-401.667969c-13.875 0-25.164062-11.289062-25.164062-25.167969v-298.296875h452v298.296875c0 13.878907-11.289062 25.167969-25.167969 25.167969zm0 0"/><path d="m143.53125 94.265625h224.933594c8.285156 0 15-6.714844 15-15 0-8.28125-6.714844-15-15-15h-224.933594c-8.28125 0-15 6.71875-15 15 0 8.285156 6.71875 15 15 15zm0 0"/><path d="m79.265625 303.132812h64.269531c8.28125 0 15-6.714843 15-15v-64.265624c0-8.285157-6.71875-15-15-15h-64.269531c-8.28125 0-15 6.714843-15 15v64.265624c0 8.285157 6.714844 15 15 15zm15-64.265624h34.269531v34.265624h-34.269531zm0 0"/><path d="m432.734375 273.132812h-224.933594c-8.285156 0-15 6.71875-15 15 0 8.285157 6.714844 15 15 15h224.933594c8.28125 0 15-6.714843 15-15 0-8.28125-6.71875-15-15-15zm0 0"/><path d="m432.734375 337.402344h-353.46875c-8.28125 0-15 6.714844-15 15 0 8.28125 6.71875 15 15 15h353.46875c8.28125 0 15-6.71875 15-15 0-8.285156-6.71875-15-15-15zm0 0"/><path d="m432.734375 401.667969h-353.46875c-8.28125 0-15 6.714843-15 15 0 8.285156 6.71875 15 15 15h353.46875c8.28125 0 15-6.714844 15-15 0-8.285157-6.71875-15-15-15zm0 0"/><path d="m432.734375 208.867188h-224.933594c-8.285156 0-15 6.714843-15 15 0 8.285156 6.714844 15 15 15h224.933594c8.28125 0 15-6.714844 15-15 0-8.285157-6.71875-15-15-15zm0 0"/></svg>