<svg id="Capa_1" enable-background="new 0 0 512 512" height="512" viewBox="0 0 512 512" width="512" xmlns="http://www.w3.org/2000/svg"><g><path d="m471.367 146.669h-108.468v-75.335c0-22.404-18.228-40.632-40.633-40.632h-281.633c-22.405 0-40.633 18.228-40.633 40.632v111.686c0 4.143 3.357 7.5 7.5 7.5s7.5-3.357 7.5-7.5v-111.686c0-14.134 11.499-25.632 25.633-25.632h281.634c14.134 0 25.633 11.498 25.633 25.632v198.803c0 14.134-11.498 25.633-25.632 25.633h-162.238c-4.218 0-8.182 1.643-11.16 4.622l-49.7 49.7c-.139.141-.372.37-.854.171-.483-.2-.483-.528-.483-.724v-37.986c0-8.703-7.081-15.783-15.784-15.783h-41.416c-14.134 0-25.633-11.499-25.633-25.633v-57.117c0-4.143-3.357-7.5-7.5-7.5s-7.5 3.357-7.5 7.5v57.117c0 22.405 18.228 40.633 40.633 40.633h41.416c.433 0 .784.352.784.783v37.986c0 6.406 3.824 12.13 9.743 14.581 1.965.815 4.02 1.21 6.056 1.21 4.1-.001 8.118-1.604 11.146-4.631l39.323-39.324v64.729c0 22.404 18.227 40.632 40.632 40.632h90.834c4.143 0 7.5-3.357 7.5-7.5s-3.357-7.5-7.5-7.5h-90.834c-14.134 0-25.632-11.498-25.632-25.632v-75.334h158.167c22.404 0 40.632-18.228 40.632-40.633v-108.468h108.468c14.134 0 25.633 11.499 25.633 25.633v198.803c0 14.134-11.499 25.632-25.633 25.632h-41.416c-8.703 0-15.784 7.08-15.784 15.783v37.986c0 .196 0 .523-.483.725-.48.2-.715-.03-.853-.171l-49.699-49.698c-2.98-2.982-6.944-4.625-11.161-4.625h-41.402c-4.143 0-7.5 3.357-7.5 7.5s3.357 7.5 7.5 7.5h41.402c.205 0 .406.083.553.23l49.7 49.7c3.027 3.026 7.046 4.631 11.146 4.631 2.035-.001 4.092-.396 6.056-1.21 5.919-2.451 9.743-8.175 9.743-14.582v-37.986c0-.432.352-.783.784-.783h41.416c22.405 0 40.633-18.228 40.633-40.632v-198.803c-.003-22.405-18.231-40.633-40.636-40.633z"/><path d="m231.934 352.97c0 13.271 10.796 24.066 24.066 24.066 13.271 0 24.066-10.796 24.066-24.066s-10.795-24.067-24.066-24.067c-13.27 0-24.066 10.796-24.066 24.067zm33.132 0c0 4.999-4.067 9.066-9.066 9.066s-9.066-4.067-9.066-9.066 4.067-9.066 9.066-9.066 9.066 4.067 9.066 9.066z"/><path d="m157.383 253.569c0 13.27 10.797 24.066 24.067 24.066 13.271 0 24.066-10.796 24.066-24.066 0-13.271-10.796-24.066-24.066-24.066s-24.067 10.796-24.067 24.066zm33.134 0c0 4.999-4.067 9.066-9.066 9.066-5 0-9.067-4.067-9.067-9.066s4.067-9.066 9.067-9.066c4.998 0 9.066 4.067 9.066 9.066z"/><path d="m205.517 172.937c21.462-9.945 34.639-32.09 32.994-55.905-1.95-28.296-24.759-51.105-53.052-53.058-15.796-1.094-31.485 4.463-43.033 15.242-11.552 10.781-18.177 26.024-18.177 41.82 0 13.271 10.797 24.066 24.067 24.066s24.066-10.796 24.066-24.066c0-2.578.998-4.871 2.885-6.632 1.854-1.729 4.302-2.58 6.877-2.411 4.306.297 8.05 4.042 8.347 8.352.273 3.948-1.979 7.602-5.604 9.09-16.709 6.861-27.505 23.073-27.505 41.302v16.566c0 13.271 10.796 24.067 24.066 24.067s24.067-10.797 24.067-24.067v-14.366zm-8.041-12.853c-4.228 1.735-6.959 5.917-6.959 10.652v16.566c0 5-4.067 9.067-9.067 9.067-4.999 0-9.066-4.067-9.066-9.067v-16.566c0-12.12 7.145-22.886 18.202-27.427 9.614-3.947 15.59-13.592 14.871-23.998-.806-11.689-10.592-21.477-22.289-22.283-.572-.039-1.141-.059-1.706-.059-6.142 0-11.921 2.263-16.426 6.467-4.935 4.604-7.652 10.855-7.652 17.6 0 4.999-4.067 9.066-9.066 9.066-5 0-9.067-4.067-9.067-9.066 0-11.653 4.889-22.9 13.411-30.855 8.518-7.952 20.078-12.059 31.766-11.242 20.863 1.438 37.682 18.259 39.12 39.125 1.256 18.212-9.222 35.1-26.072 42.02z"/><path d="m429.167 352.97c0-13.271-10.796-24.066-24.066-24.066s-24.066 10.796-24.066 24.066 10.796 24.066 24.066 24.066 24.066-10.796 24.066-24.066zm-33.133 0c0-4.999 4.067-9.066 9.066-9.066s9.066 4.067 9.066 9.066-4.067 9.066-9.066 9.066c-4.998 0-9.066-4.067-9.066-9.066z"/><path d="m330.551 377.036c13.27 0 24.066-10.796 24.066-24.066s-10.796-24.066-24.066-24.066c-13.271 0-24.067 10.796-24.067 24.066s10.796 24.066 24.067 24.066zm0-33.133c4.999 0 9.066 4.067 9.066 9.066s-4.067 9.066-9.066 9.066c-5 0-9.067-4.067-9.067-9.066s4.067-9.066 9.067-9.066z"/></g></svg>